<svg id="visual" viewBox="0 0 960 540" width="960" height="540" xmlns="http://www.w3.org/2000/svg" xmlns:xlink="http://www.w3.org/1999/xlink" version="1.1"><path d="M0 371L22.8 363.2C45.7 355.3 91.3 339.7 137 339.8C182.7 340 228.3 356 274 366.2C319.7 376.3 365.3 380.7 411.2 383.3C457 386 503 387 548.8 378.2C594.7 369.3 640.3 350.7 686 347.5C731.7 344.3 777.3 356.7 823 366C868.7 375.3 914.3 381.7 937.2 384.8L960 388L960 541L937.2 541C914.3 541 868.7 541 823 541C777.3 541 731.7 541 686 541C640.3 541 594.7 541 548.8 541C503 541 457 541 411.2 541C365.3 541 319.7 541 274 541C228.3 541 182.7 541 137 541C91.3 541 45.7 541 22.8 541L0 541Z" fill="#fa7268"></path><path d="M0 369L22.8 369.2C45.7 369.3 91.3 369.7 137 378.5C182.7 387.3 228.3 404.7 274 404.8C319.7 405 365.3 388 411.2 377.7C457 367.3 503 363.7 548.8 362C594.7 360.3 640.3 360.7 686 367.5C731.7 374.3 777.3 387.7 823 394.8C868.7 402 914.3 403 937.2 403.5L960 404L960 541L937.2 541C914.3 541 868.7 541 823 541C777.3 541 731.7 541 686 541C640.3 541 594.7 541 548.8 541C503 541 457 541 411.2 541C365.3 541 319.7 541 274 541C228.3 541 182.7 541 137 541C91.3 541 45.7 541 22.8 541L0 541Z" fill="#ef5f67"></path><path d="M0 457L22.8 447.7C45.7 438.3 91.3 419.7 137 413.7C182.7 407.7 228.3 414.3 274 415.7C319.7 417 365.3 413 411.2 412.7C457 412.3 503 415.7 548.8 422.2C594.7 428.7 640.3 438.3 686 436.8C731.7 435.3 777.3 422.7 823 416.3C868.7 410 914.3 410 937.2 410L960 410L960 541L937.2 541C914.3 541 868.7 541 823 541C777.3 541 731.7 541 686 541C640.3 541 594.7 541 548.8 541C503 541 457 541 411.2 541C365.3 541 319.7 541 274 541C228.3 541 182.7 541 137 541C91.3 541 45.7 541 22.8 541L0 541Z" fill="#e34c67"></path><path d="M0 441L22.8 447.5C45.7 454 91.3 467 137 466.5C182.7 466 228.3 452 274 446.3C319.7 440.7 365.3 443.3 411.2 443.2C457 443 503 440 548.8 443.5C594.7 447 640.3 457 686 462.2C731.7 467.3 777.3 467.7 823 463C868.7 458.3 914.3 448.7 937.2 443.8L960 439L960 541L937.2 541C914.3 541 868.7 541 823 541C777.3 541 731.7 541 686 541C640.3 541 594.7 541 548.8 541C503 541 457 541 411.2 541C365.3 541 319.7 541 274 541C228.3 541 182.7 541 137 541C91.3 541 45.7 541 22.8 541L0 541Z" fill="#d53867"></path><path d="M0 483L22.8 486C45.7 489 91.3 495 137 494.2C182.7 493.3 228.3 485.7 274 485.3C319.7 485 365.3 492 411.2 495C457 498 503 497 548.8 496.8C594.7 496.7 640.3 497.3 686 495.7C731.7 494 777.3 490 823 491.7C868.7 493.3 914.3 500.7 937.2 504.3L960 508L960 541L937.2 541C914.3 541 868.7 541 823 541C777.3 541 731.7 541 686 541C640.3 541 594.7 541 548.8 541C503 541 457 541 411.2 541C365.3 541 319.7 541 274 541C228.3 541 182.7 541 137 541C91.3 541 45.7 541 22.8 541L0 541Z" fill="#c62368"></path></svg>